<?xml version="1.0" encoding="utf-8" standalone="no"?>
<!DOCTYPE svg PUBLIC "-//W3C//DTD SVG 1.1//EN"
  "http://www.w3.org/Graphics/SVG/1.1/DTD/svg11.dtd">
<!-- Created with matplotlib (http://matplotlib.org/) -->
<svg height="345.6pt" version="1.1" viewBox="0 0 460.8 345.6" width="460.8pt" xmlns="http://www.w3.org/2000/svg" xmlns:xlink="http://www.w3.org/1999/xlink">
 <defs>
  <style type="text/css">
*{stroke-linecap:butt;stroke-linejoin:round;}
  </style>
 </defs>
 <g id="figure_1">
  <g id="patch_1">
   <path d="M 0 345.6 
L 460.8 345.6 
L 460.8 0 
L 0 0 
z
" style="fill:#ffffff;"/>
  </g>
  <g id="axes_1">
   <g id="patch_2">
    <path d="M 57.6 162.432 
L 219.927273 162.432 
L 219.927273 41.472 
L 57.6 41.472 
z
" style="fill:#ffffff;"/>
   </g>
   <g id="matplotlib.axis_1">
    <g id="xtick_1">
     <g id="line2d_1">
      <defs>
       <path d="M 0 0 
L 0 3.5 
" id="m71c1844619" style="stroke:#000000;stroke-width:0.8;"/>
      </defs>
      <g>
       <use style="stroke:#000000;stroke-width:0.8;" x="96.226543" xlink:href="#m71c1844619" y="162.432"/>
      </g>
     </g>
     <g id="text_1">
      <!-- 1.0 -->
      <defs>
       <path d="M 12.40625 8.296875 
L 28.515625 8.296875 
L 28.515625 63.921875 
L 10.984375 60.40625 
L 10.984375 69.390625 
L 28.421875 72.90625 
L 38.28125 72.90625 
L 38.28125 8.296875 
L 54.390625 8.296875 
L 54.390625 0 
L 12.40625 0 
z
" id="DejaVuSans-31"/>
       <path d="M 10.6875 12.40625 
L 21 12.40625 
L 21 0 
L 10.6875 0 
z
" id="DejaVuSans-2e"/>
       <path d="M 31.78125 66.40625 
Q 24.171875 66.40625 20.328125 58.90625 
Q 16.5 51.421875 16.5 36.375 
Q 16.5 21.390625 20.328125 13.890625 
Q 24.171875 6.390625 31.78125 6.390625 
Q 39.453125 6.390625 43.28125 13.890625 
Q 47.125 21.390625 47.125 36.375 
Q 47.125 51.421875 43.28125 58.90625 
Q 39.453125 66.40625 31.78125 66.40625 
z
M 31.78125 74.21875 
Q 44.046875 74.21875 50.515625 64.515625 
Q 56.984375 54.828125 56.984375 36.375 
Q 56.984375 17.96875 50.515625 8.265625 
Q 44.046875 -1.421875 31.78125 -1.421875 
Q 19.53125 -1.421875 13.0625 8.265625 
Q 6.59375 17.96875 6.59375 36.375 
Q 6.59375 54.828125 13.0625 64.515625 
Q 19.53125 74.21875 31.78125 74.21875 
z
" id="DejaVuSans-30"/>
      </defs>
      <g transform="translate(88.27498 177.030437)scale(0.1 -0.1)">
       <use xlink:href="#DejaVuSans-31"/>
       <use x="63.623047" xlink:href="#DejaVuSans-2e"/>
       <use x="95.410156" xlink:href="#DejaVuSans-30"/>
      </g>
     </g>
    </g>
    <g id="xtick_2">
     <g id="line2d_2">
      <g>
       <use style="stroke:#000000;stroke-width:0.8;" x="140.330837" xlink:href="#m71c1844619" y="162.432"/>
      </g>
     </g>
     <g id="text_2">
      <!-- 1.2 -->
      <defs>
       <path d="M 19.1875 8.296875 
L 53.609375 8.296875 
L 53.609375 0 
L 7.328125 0 
L 7.328125 8.296875 
Q 12.9375 14.109375 22.625 23.890625 
Q 32.328125 33.6875 34.8125 36.53125 
Q 39.546875 41.84375 41.421875 45.53125 
Q 43.3125 49.21875 43.3125 52.78125 
Q 43.3125 58.59375 39.234375 62.25 
Q 35.15625 65.921875 28.609375 65.921875 
Q 23.96875 65.921875 18.8125 64.3125 
Q 13.671875 62.703125 7.8125 59.421875 
L 7.8125 69.390625 
Q 13.765625 71.78125 18.9375 73 
Q 24.125 74.21875 28.421875 74.21875 
Q 39.75 74.21875 46.484375 68.546875 
Q 53.21875 62.890625 53.21875 53.421875 
Q 53.21875 48.921875 51.53125 44.890625 
Q 49.859375 40.875 45.40625 35.40625 
Q 44.1875 33.984375 37.640625 27.21875 
Q 31.109375 20.453125 19.1875 8.296875 
z
" id="DejaVuSans-32"/>
      </defs>
      <g transform="translate(132.379274 177.030437)scale(0.1 -0.1)">
       <use xlink:href="#DejaVuSans-31"/>
       <use x="63.623047" xlink:href="#DejaVuSans-2e"/>
       <use x="95.410156" xlink:href="#DejaVuSans-32"/>
      </g>
     </g>
    </g>
    <g id="xtick_3">
     <g id="line2d_3">
      <g>
       <use style="stroke:#000000;stroke-width:0.8;" x="184.435131" xlink:href="#m71c1844619" y="162.432"/>
      </g>
     </g>
     <g id="text_3">
      <!-- 1.4 -->
      <defs>
       <path d="M 37.796875 64.3125 
L 12.890625 25.390625 
L 37.796875 25.390625 
z
M 35.203125 72.90625 
L 47.609375 72.90625 
L 47.609375 25.390625 
L 58.015625 25.390625 
L 58.015625 17.1875 
L 47.609375 17.1875 
L 47.609375 0 
L 37.796875 0 
L 37.796875 17.1875 
L 4.890625 17.1875 
L 4.890625 26.703125 
z
" id="DejaVuSans-34"/>
      </defs>
      <g transform="translate(176.483568 177.030437)scale(0.1 -0.1)">
       <use xlink:href="#DejaVuSans-31"/>
       <use x="63.623047" xlink:href="#DejaVuSans-2e"/>
       <use x="95.410156" xlink:href="#DejaVuSans-34"/>
      </g>
     </g>
    </g>
    <g id="text_4">
     <!-- |2.47-7.54| [nm] -->
     <defs>
      <path d="M 21 76.421875 
L 21 -23.578125 
L 12.703125 -23.578125 
L 12.703125 76.421875 
z
" id="DejaVuSans-7c"/>
      <path d="M 8.203125 72.90625 
L 55.078125 72.90625 
L 55.078125 68.703125 
L 28.609375 0 
L 18.3125 0 
L 43.21875 64.59375 
L 8.203125 64.59375 
z
" id="DejaVuSans-37"/>
      <path d="M 4.890625 31.390625 
L 31.203125 31.390625 
L 31.203125 23.390625 
L 4.890625 23.390625 
z
" id="DejaVuSans-2d"/>
      <path d="M 10.796875 72.90625 
L 49.515625 72.90625 
L 49.515625 64.59375 
L 19.828125 64.59375 
L 19.828125 46.734375 
Q 21.96875 47.46875 24.109375 47.828125 
Q 26.265625 48.1875 28.421875 48.1875 
Q 40.625 48.1875 47.75 41.5 
Q 54.890625 34.8125 54.890625 23.390625 
Q 54.890625 11.625 47.5625 5.09375 
Q 40.234375 -1.421875 26.90625 -1.421875 
Q 22.3125 -1.421875 17.546875 -0.640625 
Q 12.796875 0.140625 7.71875 1.703125 
L 7.71875 11.625 
Q 12.109375 9.234375 16.796875 8.0625 
Q 21.484375 6.890625 26.703125 6.890625 
Q 35.15625 6.890625 40.078125 11.328125 
Q 45.015625 15.765625 45.015625 23.390625 
Q 45.015625 31 40.078125 35.4375 
Q 35.15625 39.890625 26.703125 39.890625 
Q 22.75 39.890625 18.8125 39.015625 
Q 14.890625 38.140625 10.796875 36.28125 
z
" id="DejaVuSans-35"/>
      <path id="DejaVuSans-20"/>
      <path d="M 8.59375 75.984375 
L 29.296875 75.984375 
L 29.296875 69 
L 17.578125 69 
L 17.578125 -6.203125 
L 29.296875 -6.203125 
L 29.296875 -13.1875 
L 8.59375 -13.1875 
z
" id="DejaVuSans-5b"/>
      <path d="M 54.890625 33.015625 
L 54.890625 0 
L 45.90625 0 
L 45.90625 32.71875 
Q 45.90625 40.484375 42.875 44.328125 
Q 39.84375 48.1875 33.796875 48.1875 
Q 26.515625 48.1875 22.3125 43.546875 
Q 18.109375 38.921875 18.109375 30.90625 
L 18.109375 0 
L 9.078125 0 
L 9.078125 54.6875 
L 18.109375 54.6875 
L 18.109375 46.1875 
Q 21.34375 51.125 25.703125 53.5625 
Q 30.078125 56 35.796875 56 
Q 45.21875 56 50.046875 50.171875 
Q 54.890625 44.34375 54.890625 33.015625 
z
" id="DejaVuSans-6e"/>
      <path d="M 52 44.1875 
Q 55.375 50.25 60.0625 53.125 
Q 64.75 56 71.09375 56 
Q 79.640625 56 84.28125 50.015625 
Q 88.921875 44.046875 88.921875 33.015625 
L 88.921875 0 
L 79.890625 0 
L 79.890625 32.71875 
Q 79.890625 40.578125 77.09375 44.375 
Q 74.3125 48.1875 68.609375 48.1875 
Q 61.625 48.1875 57.5625 43.546875 
Q 53.515625 38.921875 53.515625 30.90625 
L 53.515625 0 
L 44.484375 0 
L 44.484375 32.71875 
Q 44.484375 40.625 41.703125 44.40625 
Q 38.921875 48.1875 33.109375 48.1875 
Q 26.21875 48.1875 22.15625 43.53125 
Q 18.109375 38.875 18.109375 30.90625 
L 18.109375 0 
L 9.078125 0 
L 9.078125 54.6875 
L 18.109375 54.6875 
L 18.109375 46.1875 
Q 21.1875 51.21875 25.484375 53.609375 
Q 29.78125 56 35.6875 56 
Q 41.65625 56 45.828125 52.96875 
Q 50 49.953125 52 44.1875 
z
" id="DejaVuSans-6d"/>
      <path d="M 30.421875 75.984375 
L 30.421875 -13.1875 
L 9.71875 -13.1875 
L 9.71875 -6.203125 
L 21.390625 -6.203125 
L 21.390625 69 
L 9.71875 69 
L 9.71875 75.984375 
z
" id="DejaVuSans-5d"/>
     </defs>
     <g transform="translate(97.795668 190.752312)scale(0.1 -0.1)">
      <use xlink:href="#DejaVuSans-7c"/>
      <use x="33.691406" xlink:href="#DejaVuSans-32"/>
      <use x="97.314453" xlink:href="#DejaVuSans-2e"/>
      <use x="129.101562" xlink:href="#DejaVuSans-34"/>
      <use x="192.724609" xlink:href="#DejaVuSans-37"/>
      <use x="256.347656" xlink:href="#DejaVuSans-2d"/>
      <use x="292.431641" xlink:href="#DejaVuSans-37"/>
      <use x="356.054688" xlink:href="#DejaVuSans-2e"/>
      <use x="387.841797" xlink:href="#DejaVuSans-35"/>
      <use x="451.464844" xlink:href="#DejaVuSans-34"/>
      <use x="515.087891" xlink:href="#DejaVuSans-7c"/>
      <use x="548.779297" xlink:href="#DejaVuSans-20"/>
      <use x="580.566406" xlink:href="#DejaVuSans-5b"/>
      <use x="619.580078" xlink:href="#DejaVuSans-6e"/>
      <use x="682.958984" xlink:href="#DejaVuSans-6d"/>
      <use x="780.371094" xlink:href="#DejaVuSans-5d"/>
     </g>
    </g>
   </g>
   <g id="matplotlib.axis_2">
    <g id="ytick_1">
     <g id="line2d_4">
      <defs>
       <path d="M 0 0 
L -3.5 0 
" id="m4af56e6d32" style="stroke:#000000;stroke-width:0.8;"/>
      </defs>
      <g>
       <use style="stroke:#000000;stroke-width:0.8;" x="57.6" xlink:href="#m4af56e6d32" y="160.645949"/>
      </g>
     </g>
     <g id="text_5">
      <!-- 1.5 -->
      <g transform="translate(34.696875 164.445168)scale(0.1 -0.1)">
       <use xlink:href="#DejaVuSans-31"/>
       <use x="63.623047" xlink:href="#DejaVuSans-2e"/>
       <use x="95.410156" xlink:href="#DejaVuSans-35"/>
      </g>
     </g>
    </g>
    <g id="ytick_2">
     <g id="line2d_5">
      <g>
       <use style="stroke:#000000;stroke-width:0.8;" x="57.6" xlink:href="#m4af56e6d32" y="131.080462"/>
      </g>
     </g>
     <g id="text_6">
      <!-- 2.0 -->
      <g transform="translate(34.696875 134.879681)scale(0.1 -0.1)">
       <use xlink:href="#DejaVuSans-32"/>
       <use x="63.623047" xlink:href="#DejaVuSans-2e"/>
       <use x="95.410156" xlink:href="#DejaVuSans-30"/>
      </g>
     </g>
    </g>
    <g id="ytick_3">
     <g id="line2d_6">
      <g>
       <use style="stroke:#000000;stroke-width:0.8;" x="57.6" xlink:href="#m4af56e6d32" y="101.514975"/>
      </g>
     </g>
     <g id="text_7">
      <!-- 2.5 -->
      <g transform="translate(34.696875 105.314194)scale(0.1 -0.1)">
       <use xlink:href="#DejaVuSans-32"/>
       <use x="63.623047" xlink:href="#DejaVuSans-2e"/>
       <use x="95.410156" xlink:href="#DejaVuSans-35"/>
      </g>
     </g>
    </g>
    <g id="ytick_4">
     <g id="line2d_7">
      <g>
       <use style="stroke:#000000;stroke-width:0.8;" x="57.6" xlink:href="#m4af56e6d32" y="71.949488"/>
      </g>
     </g>
     <g id="text_8">
      <!-- 3.0 -->
      <defs>
       <path d="M 40.578125 39.3125 
Q 47.65625 37.796875 51.625 33 
Q 55.609375 28.21875 55.609375 21.1875 
Q 55.609375 10.40625 48.1875 4.484375 
Q 40.765625 -1.421875 27.09375 -1.421875 
Q 22.515625 -1.421875 17.65625 -0.515625 
Q 12.796875 0.390625 7.625 2.203125 
L 7.625 11.71875 
Q 11.71875 9.328125 16.59375 8.109375 
Q 21.484375 6.890625 26.8125 6.890625 
Q 36.078125 6.890625 40.9375 10.546875 
Q 45.796875 14.203125 45.796875 21.1875 
Q 45.796875 27.640625 41.28125 31.265625 
Q 36.765625 34.90625 28.71875 34.90625 
L 20.21875 34.90625 
L 20.21875 43.015625 
L 29.109375 43.015625 
Q 36.375 43.015625 40.234375 45.921875 
Q 44.09375 48.828125 44.09375 54.296875 
Q 44.09375 59.90625 40.109375 62.90625 
Q 36.140625 65.921875 28.71875 65.921875 
Q 24.65625 65.921875 20.015625 65.03125 
Q 15.375 64.15625 9.8125 62.3125 
L 9.8125 71.09375 
Q 15.4375 72.65625 20.34375 73.4375 
Q 25.25 74.21875 29.59375 74.21875 
Q 40.828125 74.21875 47.359375 69.109375 
Q 53.90625 64.015625 53.90625 55.328125 
Q 53.90625 49.265625 50.4375 45.09375 
Q 46.96875 40.921875 40.578125 39.3125 
z
" id="DejaVuSans-33"/>
      </defs>
      <g transform="translate(34.696875 75.748707)scale(0.1 -0.1)">
       <use xlink:href="#DejaVuSans-33"/>
       <use x="63.623047" xlink:href="#DejaVuSans-2e"/>
       <use x="95.410156" xlink:href="#DejaVuSans-30"/>
      </g>
     </g>
    </g>
    <g id="ytick_5">
     <g id="line2d_8">
      <g>
       <use style="stroke:#000000;stroke-width:0.8;" x="57.6" xlink:href="#m4af56e6d32" y="42.384001"/>
      </g>
     </g>
     <g id="text_9">
      <!-- 3.5 -->
      <g transform="translate(34.696875 46.183219)scale(0.1 -0.1)">
       <use xlink:href="#DejaVuSans-33"/>
       <use x="63.623047" xlink:href="#DejaVuSans-2e"/>
       <use x="95.410156" xlink:href="#DejaVuSans-35"/>
      </g>
     </g>
    </g>
    <g id="text_10">
     <!-- |6.30-4.39| [nm] -->
     <defs>
      <path d="M 33.015625 40.375 
Q 26.375 40.375 22.484375 35.828125 
Q 18.609375 31.296875 18.609375 23.390625 
Q 18.609375 15.53125 22.484375 10.953125 
Q 26.375 6.390625 33.015625 6.390625 
Q 39.65625 6.390625 43.53125 10.953125 
Q 47.40625 15.53125 47.40625 23.390625 
Q 47.40625 31.296875 43.53125 35.828125 
Q 39.65625 40.375 33.015625 40.375 
z
M 52.59375 71.296875 
L 52.59375 62.3125 
Q 48.875 64.0625 45.09375 64.984375 
Q 41.3125 65.921875 37.59375 65.921875 
Q 27.828125 65.921875 22.671875 59.328125 
Q 17.53125 52.734375 16.796875 39.40625 
Q 19.671875 43.65625 24.015625 45.921875 
Q 28.375 48.1875 33.59375 48.1875 
Q 44.578125 48.1875 50.953125 41.515625 
Q 57.328125 34.859375 57.328125 23.390625 
Q 57.328125 12.15625 50.6875 5.359375 
Q 44.046875 -1.421875 33.015625 -1.421875 
Q 20.359375 -1.421875 13.671875 8.265625 
Q 6.984375 17.96875 6.984375 36.375 
Q 6.984375 53.65625 15.1875 63.9375 
Q 23.390625 74.21875 37.203125 74.21875 
Q 40.921875 74.21875 44.703125 73.484375 
Q 48.484375 72.75 52.59375 71.296875 
z
" id="DejaVuSans-36"/>
      <path d="M 10.984375 1.515625 
L 10.984375 10.5 
Q 14.703125 8.734375 18.5 7.8125 
Q 22.3125 6.890625 25.984375 6.890625 
Q 35.75 6.890625 40.890625 13.453125 
Q 46.046875 20.015625 46.78125 33.40625 
Q 43.953125 29.203125 39.59375 26.953125 
Q 35.25 24.703125 29.984375 24.703125 
Q 19.046875 24.703125 12.671875 31.3125 
Q 6.296875 37.9375 6.296875 49.421875 
Q 6.296875 60.640625 12.9375 67.421875 
Q 19.578125 74.21875 30.609375 74.21875 
Q 43.265625 74.21875 49.921875 64.515625 
Q 56.59375 54.828125 56.59375 36.375 
Q 56.59375 19.140625 48.40625 8.859375 
Q 40.234375 -1.421875 26.421875 -1.421875 
Q 22.703125 -1.421875 18.890625 -0.6875 
Q 15.09375 0.046875 10.984375 1.515625 
z
M 30.609375 32.421875 
Q 37.25 32.421875 41.125 36.953125 
Q 45.015625 41.5 45.015625 49.421875 
Q 45.015625 57.28125 41.125 61.84375 
Q 37.25 66.40625 30.609375 66.40625 
Q 23.96875 66.40625 20.09375 61.84375 
Q 16.21875 57.28125 16.21875 49.421875 
Q 16.21875 41.5 20.09375 36.953125 
Q 23.96875 32.421875 30.609375 32.421875 
z
" id="DejaVuSans-39"/>
     </defs>
     <g transform="translate(28.339062 142.919969)rotate(-90)scale(0.1 -0.1)">
      <use xlink:href="#DejaVuSans-7c"/>
      <use x="33.691406" xlink:href="#DejaVuSans-36"/>
      <use x="97.314453" xlink:href="#DejaVuSans-2e"/>
      <use x="129.101562" xlink:href="#DejaVuSans-33"/>
      <use x="192.724609" xlink:href="#DejaVuSans-30"/>
      <use x="256.347656" xlink:href="#DejaVuSans-2d"/>
      <use x="292.431641" xlink:href="#DejaVuSans-34"/>
      <use x="356.054688" xlink:href="#DejaVuSans-2e"/>
      <use x="387.841797" xlink:href="#DejaVuSans-33"/>
      <use x="451.464844" xlink:href="#DejaVuSans-39"/>
      <use x="515.087891" xlink:href="#DejaVuSans-7c"/>
      <use x="548.779297" xlink:href="#DejaVuSans-20"/>
      <use x="580.566406" xlink:href="#DejaVuSans-5b"/>
      <use x="619.580078" xlink:href="#DejaVuSans-6e"/>
      <use x="682.958984" xlink:href="#DejaVuSans-6d"/>
      <use x="780.371094" xlink:href="#DejaVuSans-5d"/>
     </g>
    </g>
   </g>
   <g id="line2d_9">
    <defs>
     <path d="M 0 -3 
L -0.673542 -0.927051 
L -2.85317 -0.927051 
L -1.089814 0.354102 
L -1.763356 2.427051 
L -0 1.145898 
L 1.763356 2.427051 
L 1.089814 0.354102 
L 2.85317 -0.927051 
L 0.673542 -0.927051 
z
" id="m12f431377b" style="stroke:#6a5acd;stroke-linejoin:bevel;"/>
    </defs>
    <g clip-path="url(#p8a00f8ab58)">
     <use style="fill:#6a5acd;stroke:#6a5acd;stroke-linejoin:bevel;" x="91.356981" xlink:href="#m12f431377b" y="46.970182"/>
    </g>
   </g>
   <g id="line2d_10">
    <defs>
     <path d="M 0 -3 
L -3 3 
L 3 3 
z
" id="m3ac92ba4cb" style="stroke:#6a5acd;stroke-linejoin:miter;"/>
    </defs>
    <g clip-path="url(#p8a00f8ab58)">
     <use style="fill:#6a5acd;stroke:#6a5acd;stroke-linejoin:miter;" x="193.818018" xlink:href="#m3ac92ba4cb" y="131.847847"/>
    </g>
   </g>
   <g id="line2d_11">
    <defs>
     <path d="M 0 -3 
L -0.673542 -0.927051 
L -2.85317 -0.927051 
L -1.089814 0.354102 
L -1.763356 2.427051 
L -0 1.145898 
L 1.763356 2.427051 
L 1.089814 0.354102 
L 2.85317 -0.927051 
L 0.673542 -0.927051 
z
" id="m36d9552c84" style="stroke:#00fa9a;stroke-linejoin:bevel;"/>
    </defs>
    <g clip-path="url(#p8a00f8ab58)">
     <use style="fill:#00fa9a;stroke:#00fa9a;stroke-linejoin:bevel;" x="103.738161" xlink:href="#m36d9552c84" y="68.932039"/>
    </g>
   </g>
   <g id="line2d_12">
    <defs>
     <path d="M 0 -3 
L -3 3 
L 3 3 
z
" id="mf017742709" style="stroke:#00fa9a;stroke-linejoin:miter;"/>
    </defs>
    <g clip-path="url(#p8a00f8ab58)">
     <use style="fill:#00fa9a;stroke:#00fa9a;stroke-linejoin:miter;" x="168.567642" xlink:href="#mf017742709" y="137.99266"/>
    </g>
   </g>
   <g id="line2d_13">
    <defs>
     <path d="M 0 -3 
L -0.673542 -0.927051 
L -2.85317 -0.927051 
L -1.089814 0.354102 
L -1.763356 2.427051 
L -0 1.145898 
L 1.763356 2.427051 
L 1.089814 0.354102 
L 2.85317 -0.927051 
L 0.673542 -0.927051 
z
" id="m88f6bff7ec" style="stroke:#a0522d;stroke-linejoin:bevel;"/>
    </defs>
    <g clip-path="url(#p8a00f8ab58)">
     <use style="fill:#a0522d;stroke:#a0522d;stroke-linejoin:bevel;" x="79.078876" xlink:href="#m88f6bff7ec" y="73.88182"/>
    </g>
   </g>
   <g id="line2d_14">
    <defs>
     <path d="M 0 -3 
L -3 3 
L 3 3 
z
" id="m25d611a70b" style="stroke:#a0522d;stroke-linejoin:miter;"/>
    </defs>
    <g clip-path="url(#p8a00f8ab58)">
     <use style="fill:#a0522d;stroke:#a0522d;stroke-linejoin:miter;" x="175.76977" xlink:href="#m25d611a70b" y="130.207533"/>
    </g>
   </g>
   <g id="line2d_15">
    <defs>
     <path d="M 0 -3 
L -0.673542 -0.927051 
L -2.85317 -0.927051 
L -1.089814 0.354102 
L -1.763356 2.427051 
L -0 1.145898 
L 1.763356 2.427051 
L 1.089814 0.354102 
L 2.85317 -0.927051 
L 0.673542 -0.927051 
z
" id="m6138e7476e" style="stroke:#e9967a;stroke-linejoin:bevel;"/>
    </defs>
    <g clip-path="url(#p8a00f8ab58)">
     <use style="fill:#e9967a;stroke:#e9967a;stroke-linejoin:bevel;" x="82.184223" xlink:href="#m6138e7476e" y="56.377134"/>
    </g>
   </g>
   <g id="line2d_16">
    <defs>
     <path d="M 0 -3 
L -3 3 
L 3 3 
z
" id="m707ab10a48" style="stroke:#e9967a;stroke-linejoin:miter;"/>
    </defs>
    <g clip-path="url(#p8a00f8ab58)">
     <use style="fill:#e9967a;stroke:#e9967a;stroke-linejoin:miter;" x="180.541842" xlink:href="#m707ab10a48" y="129.912788"/>
    </g>
   </g>
   <g id="line2d_17">
    <defs>
     <path d="M 0 -3 
L -0.673542 -0.927051 
L -2.85317 -0.927051 
L -1.089814 0.354102 
L -1.763356 2.427051 
L -0 1.145898 
L 1.763356 2.427051 
L 1.089814 0.354102 
L 2.85317 -0.927051 
L 0.673542 -0.927051 
z
" id="mfa3a0f8bb6" style="stroke:#ee82ee;stroke-linejoin:bevel;"/>
    </defs>
    <g clip-path="url(#p8a00f8ab58)">
     <use style="fill:#ee82ee;stroke:#ee82ee;stroke-linejoin:bevel;" x="87.300815" xlink:href="#mfa3a0f8bb6" y="76.19949"/>
    </g>
   </g>
   <g id="line2d_18">
    <defs>
     <path d="M 0 -3 
L -3 3 
L 3 3 
z
" id="m621214f90c" style="stroke:#ee82ee;stroke-linejoin:miter;"/>
    </defs>
    <g clip-path="url(#p8a00f8ab58)">
     <use style="fill:#ee82ee;stroke:#ee82ee;stroke-linejoin:miter;" x="165.125412" xlink:href="#m621214f90c" y="109.250646"/>
    </g>
   </g>
   <g id="line2d_19">
    <defs>
     <path d="M 0 -3 
L -0.673542 -0.927051 
L -2.85317 -0.927051 
L -1.089814 0.354102 
L -1.763356 2.427051 
L -0 1.145898 
L 1.763356 2.427051 
L 1.089814 0.354102 
L 2.85317 -0.927051 
L 0.673542 -0.927051 
z
" id="m3ba7dc134f" style="stroke:#ff6347;stroke-linejoin:bevel;"/>
    </defs>
    <g clip-path="url(#p8a00f8ab58)">
     <use style="fill:#ff6347;stroke:#ff6347;stroke-linejoin:bevel;" x="101.021012" xlink:href="#m3ba7dc134f" y="61.809345"/>
    </g>
   </g>
   <g id="line2d_20">
    <defs>
     <path d="M 0 -3 
L -3 3 
L 3 3 
z
" id="m330a82f636" style="stroke:#ff6347;stroke-linejoin:miter;"/>
    </defs>
    <g clip-path="url(#p8a00f8ab58)">
     <use style="fill:#ff6347;stroke:#ff6347;stroke-linejoin:miter;" x="144.928313" xlink:href="#m330a82f636" y="110.091968"/>
    </g>
   </g>
   <g id="line2d_21">
    <defs>
     <path d="M 0 -3 
L -0.673542 -0.927051 
L -2.85317 -0.927051 
L -1.089814 0.354102 
L -1.763356 2.427051 
L -0 1.145898 
L 1.763356 2.427051 
L 1.089814 0.354102 
L 2.85317 -0.927051 
L 0.673542 -0.927051 
z
" id="m7cc45bff9e" style="stroke:#2f4f4f;stroke-linejoin:bevel;"/>
    </defs>
    <g clip-path="url(#p8a00f8ab58)">
     <use style="fill:#2f4f4f;stroke:#2f4f4f;stroke-linejoin:bevel;" x="66.56795" xlink:href="#m7cc45bff9e" y="77.571852"/>
    </g>
   </g>
   <g id="line2d_22">
    <defs>
     <path d="M 0 -3 
L -3 3 
L 3 3 
z
" id="ma52b76e139" style="stroke:#2f4f4f;stroke-linejoin:miter;"/>
    </defs>
    <g clip-path="url(#p8a00f8ab58)">
     <use style="fill:#2f4f4f;stroke:#2f4f4f;stroke-linejoin:miter;" x="143.714403" xlink:href="#ma52b76e139" y="146.042708"/>
    </g>
   </g>
   <g id="line2d_23">
    <defs>
     <path d="M 0 -3 
L -0.673542 -0.927051 
L -2.85317 -0.927051 
L -1.089814 0.354102 
L -1.763356 2.427051 
L -0 1.145898 
L 1.763356 2.427051 
L 1.089814 0.354102 
L 2.85317 -0.927051 
L 0.673542 -0.927051 
z
" id="m95e2bec634" style="stroke:#808000;stroke-linejoin:bevel;"/>
    </defs>
    <g clip-path="url(#p8a00f8ab58)">
     <use style="fill:#808000;stroke:#808000;stroke-linejoin:bevel;" x="68.57905" xlink:href="#m95e2bec634" y="87.946063"/>
    </g>
   </g>
   <g id="line2d_24">
    <defs>
     <path d="M 0 -3 
L -3 3 
L 3 3 
z
" id="me400d5fd3d" style="stroke:#808000;stroke-linejoin:miter;"/>
    </defs>
    <g clip-path="url(#p8a00f8ab58)">
     <use style="fill:#808000;stroke:#808000;stroke-linejoin:miter;" x="159.383831" xlink:href="#me400d5fd3d" y="156.933818"/>
    </g>
   </g>
   <g id="line2d_25">
    <defs>
     <path d="M 0 -3 
L -0.673542 -0.927051 
L -2.85317 -0.927051 
L -1.089814 0.354102 
L -1.763356 2.427051 
L -0 1.145898 
L 1.763356 2.427051 
L 1.089814 0.354102 
L 2.85317 -0.927051 
L 0.673542 -0.927051 
z
" id="mdf86f6c0c9" style="stroke:#9acd32;stroke-linejoin:bevel;"/>
    </defs>
    <g clip-path="url(#p8a00f8ab58)">
     <use style="fill:#9acd32;stroke:#9acd32;stroke-linejoin:bevel;" x="64.978512" xlink:href="#mdf86f6c0c9" y="87.166306"/>
    </g>
   </g>
   <g id="line2d_26">
    <defs>
     <path d="M 0 -3 
L -3 3 
L 3 3 
z
" id="m42e74d4aab" style="stroke:#9acd32;stroke-linejoin:miter;"/>
    </defs>
    <g clip-path="url(#p8a00f8ab58)">
     <use style="fill:#9acd32;stroke:#9acd32;stroke-linejoin:miter;" x="168.501895" xlink:href="#m42e74d4aab" y="153.772556"/>
    </g>
   </g>
   <g id="line2d_27">
    <defs>
     <path d="M 0 -3 
L -0.673542 -0.927051 
L -2.85317 -0.927051 
L -1.089814 0.354102 
L -1.763356 2.427051 
L -0 1.145898 
L 1.763356 2.427051 
L 1.089814 0.354102 
L 2.85317 -0.927051 
L 0.673542 -0.927051 
z
" id="mc9f1016bbd" style="stroke:#ffd700;stroke-linejoin:bevel;"/>
    </defs>
    <g clip-path="url(#p8a00f8ab58)">
     <use style="fill:#ffd700;stroke:#ffd700;stroke-linejoin:bevel;" x="76.793984" xlink:href="#mc9f1016bbd" y="75.458926"/>
    </g>
   </g>
   <g id="line2d_28">
    <defs>
     <path d="M 0 -3 
L -3 3 
L 3 3 
z
" id="m0ddf69354b" style="stroke:#ffd700;stroke-linejoin:miter;"/>
    </defs>
    <g clip-path="url(#p8a00f8ab58)">
     <use style="fill:#ffd700;stroke:#ffd700;stroke-linejoin:miter;" x="150.146628" xlink:href="#m0ddf69354b" y="146.834123"/>
    </g>
   </g>
   <g id="line2d_29">
    <defs>
     <path d="M 0 -3 
L -0.673542 -0.927051 
L -2.85317 -0.927051 
L -1.089814 0.354102 
L -1.763356 2.427051 
L -0 1.145898 
L 1.763356 2.427051 
L 1.089814 0.354102 
L 2.85317 -0.927051 
L 0.673542 -0.927051 
z
" id="mb9bf9edaff" style="stroke:#c0c0c0;stroke-linejoin:bevel;"/>
    </defs>
    <g clip-path="url(#p8a00f8ab58)">
     <use style="fill:#c0c0c0;stroke:#c0c0c0;stroke-linejoin:bevel;" x="107.318274" xlink:href="#mb9bf9edaff" y="91.011036"/>
    </g>
   </g>
   <g id="line2d_30">
    <defs>
     <path d="M 0 -3 
L -3 3 
L 3 3 
z
" id="mcb4893a03a" style="stroke:#c0c0c0;stroke-linejoin:miter;"/>
    </defs>
    <g clip-path="url(#p8a00f8ab58)">
     <use style="fill:#c0c0c0;stroke:#c0c0c0;stroke-linejoin:miter;" x="212.54876" xlink:href="#mcb4893a03a" y="152.320125"/>
    </g>
   </g>
   <g id="patch_3">
    <path d="M 57.6 162.432 
L 57.6 41.472 
" style="fill:none;stroke:#000000;stroke-linecap:square;stroke-linejoin:miter;stroke-width:0.8;"/>
   </g>
   <g id="patch_4">
    <path d="M 219.927273 162.432 
L 219.927273 41.472 
" style="fill:none;stroke:#000000;stroke-linecap:square;stroke-linejoin:miter;stroke-width:0.8;"/>
   </g>
   <g id="patch_5">
    <path d="M 57.6 162.432 
L 219.927273 162.432 
" style="fill:none;stroke:#000000;stroke-linecap:square;stroke-linejoin:miter;stroke-width:0.8;"/>
   </g>
   <g id="patch_6">
    <path d="M 57.6 41.472 
L 219.927273 41.472 
" style="fill:none;stroke:#000000;stroke-linecap:square;stroke-linejoin:miter;stroke-width:0.8;"/>
   </g>
  </g>
  <g id="axes_2">
   <g id="patch_7">
    <path d="M 252.392727 162.432 
L 414.72 162.432 
L 414.72 41.472 
L 252.392727 41.472 
z
" style="fill:#ffffff;"/>
   </g>
   <g id="matplotlib.axis_3">
    <g id="xtick_4">
     <g id="line2d_31">
      <g>
       <use style="stroke:#000000;stroke-width:0.8;" x="280.48107" xlink:href="#m71c1844619" y="162.432"/>
      </g>
     </g>
     <g id="text_11">
      <!-- 1.8 -->
      <defs>
       <path d="M 31.78125 34.625 
Q 24.75 34.625 20.71875 30.859375 
Q 16.703125 27.09375 16.703125 20.515625 
Q 16.703125 13.921875 20.71875 10.15625 
Q 24.75 6.390625 31.78125 6.390625 
Q 38.8125 6.390625 42.859375 10.171875 
Q 46.921875 13.96875 46.921875 20.515625 
Q 46.921875 27.09375 42.890625 30.859375 
Q 38.875 34.625 31.78125 34.625 
z
M 21.921875 38.8125 
Q 15.578125 40.375 12.03125 44.71875 
Q 8.5 49.078125 8.5 55.328125 
Q 8.5 64.0625 14.71875 69.140625 
Q 20.953125 74.21875 31.78125 74.21875 
Q 42.671875 74.21875 48.875 69.140625 
Q 55.078125 64.0625 55.078125 55.328125 
Q 55.078125 49.078125 51.53125 44.71875 
Q 48 40.375 41.703125 38.8125 
Q 48.828125 37.15625 52.796875 32.3125 
Q 56.78125 27.484375 56.78125 20.515625 
Q 56.78125 9.90625 50.3125 4.234375 
Q 43.84375 -1.421875 31.78125 -1.421875 
Q 19.734375 -1.421875 13.25 4.234375 
Q 6.78125 9.90625 6.78125 20.515625 
Q 6.78125 27.484375 10.78125 32.3125 
Q 14.796875 37.15625 21.921875 38.8125 
z
M 18.3125 54.390625 
Q 18.3125 48.734375 21.84375 45.5625 
Q 25.390625 42.390625 31.78125 42.390625 
Q 38.140625 42.390625 41.71875 45.5625 
Q 45.3125 48.734375 45.3125 54.390625 
Q 45.3125 60.0625 41.71875 63.234375 
Q 38.140625 66.40625 31.78125 66.40625 
Q 25.390625 66.40625 21.84375 63.234375 
Q 18.3125 60.0625 18.3125 54.390625 
z
" id="DejaVuSans-38"/>
      </defs>
      <g transform="translate(272.529508 177.030437)scale(0.1 -0.1)">
       <use xlink:href="#DejaVuSans-31"/>
       <use x="63.623047" xlink:href="#DejaVuSans-2e"/>
       <use x="95.410156" xlink:href="#DejaVuSans-38"/>
      </g>
     </g>
    </g>
    <g id="xtick_5">
     <g id="line2d_32">
      <g>
       <use style="stroke:#000000;stroke-width:0.8;" x="314.453015" xlink:href="#m71c1844619" y="162.432"/>
      </g>
     </g>
     <g id="text_12">
      <!-- 2.0 -->
      <g transform="translate(306.501452 177.030437)scale(0.1 -0.1)">
       <use xlink:href="#DejaVuSans-32"/>
       <use x="63.623047" xlink:href="#DejaVuSans-2e"/>
       <use x="95.410156" xlink:href="#DejaVuSans-30"/>
      </g>
     </g>
    </g>
    <g id="xtick_6">
     <g id="line2d_33">
      <g>
       <use style="stroke:#000000;stroke-width:0.8;" x="348.42496" xlink:href="#m71c1844619" y="162.432"/>
      </g>
     </g>
     <g id="text_13">
      <!-- 2.2 -->
      <g transform="translate(340.473397 177.030437)scale(0.1 -0.1)">
       <use xlink:href="#DejaVuSans-32"/>
       <use x="63.623047" xlink:href="#DejaVuSans-2e"/>
       <use x="95.410156" xlink:href="#DejaVuSans-32"/>
      </g>
     </g>
    </g>
    <g id="xtick_7">
     <g id="line2d_34">
      <g>
       <use style="stroke:#000000;stroke-width:0.8;" x="382.396904" xlink:href="#m71c1844619" y="162.432"/>
      </g>
     </g>
     <g id="text_14">
      <!-- 2.4 -->
      <g transform="translate(374.445342 177.030437)scale(0.1 -0.1)">
       <use xlink:href="#DejaVuSans-32"/>
       <use x="63.623047" xlink:href="#DejaVuSans-2e"/>
       <use x="95.410156" xlink:href="#DejaVuSans-34"/>
      </g>
     </g>
    </g>
    <g id="text_15">
     <!-- |7.54-4.39| [nm] -->
     <g transform="translate(292.588395 190.752312)scale(0.1 -0.1)">
      <use xlink:href="#DejaVuSans-7c"/>
      <use x="33.691406" xlink:href="#DejaVuSans-37"/>
      <use x="97.314453" xlink:href="#DejaVuSans-2e"/>
      <use x="129.101562" xlink:href="#DejaVuSans-35"/>
      <use x="192.724609" xlink:href="#DejaVuSans-34"/>
      <use x="256.347656" xlink:href="#DejaVuSans-2d"/>
      <use x="292.431641" xlink:href="#DejaVuSans-34"/>
      <use x="356.054688" xlink:href="#DejaVuSans-2e"/>
      <use x="387.841797" xlink:href="#DejaVuSans-33"/>
      <use x="451.464844" xlink:href="#DejaVuSans-39"/>
      <use x="515.087891" xlink:href="#DejaVuSans-7c"/>
      <use x="548.779297" xlink:href="#DejaVuSans-20"/>
      <use x="580.566406" xlink:href="#DejaVuSans-5b"/>
      <use x="619.580078" xlink:href="#DejaVuSans-6e"/>
      <use x="682.958984" xlink:href="#DejaVuSans-6d"/>
      <use x="780.371094" xlink:href="#DejaVuSans-5d"/>
     </g>
    </g>
   </g>
   <g id="matplotlib.axis_4">
    <g id="ytick_6">
     <g id="line2d_35">
      <g>
       <use style="stroke:#000000;stroke-width:0.8;" x="252.392727" xlink:href="#m4af56e6d32" y="158.250853"/>
      </g>
     </g>
     <g id="text_16">
      <!-- 2.0 -->
      <g transform="translate(229.489602 162.050072)scale(0.1 -0.1)">
       <use xlink:href="#DejaVuSans-32"/>
       <use x="63.623047" xlink:href="#DejaVuSans-2e"/>
       <use x="95.410156" xlink:href="#DejaVuSans-30"/>
      </g>
     </g>
    </g>
    <g id="ytick_7">
     <g id="line2d_36">
      <g>
       <use style="stroke:#000000;stroke-width:0.8;" x="252.392727" xlink:href="#m4af56e6d32" y="128.003655"/>
      </g>
     </g>
     <g id="text_17">
      <!-- 2.2 -->
      <g transform="translate(229.489602 131.802874)scale(0.1 -0.1)">
       <use xlink:href="#DejaVuSans-32"/>
       <use x="63.623047" xlink:href="#DejaVuSans-2e"/>
       <use x="95.410156" xlink:href="#DejaVuSans-32"/>
      </g>
     </g>
    </g>
    <g id="ytick_8">
     <g id="line2d_37">
      <g>
       <use style="stroke:#000000;stroke-width:0.8;" x="252.392727" xlink:href="#m4af56e6d32" y="97.756457"/>
      </g>
     </g>
     <g id="text_18">
      <!-- 2.4 -->
      <g transform="translate(229.489602 101.555676)scale(0.1 -0.1)">
       <use xlink:href="#DejaVuSans-32"/>
       <use x="63.623047" xlink:href="#DejaVuSans-2e"/>
       <use x="95.410156" xlink:href="#DejaVuSans-34"/>
      </g>
     </g>
    </g>
    <g id="ytick_9">
     <g id="line2d_38">
      <g>
       <use style="stroke:#000000;stroke-width:0.8;" x="252.392727" xlink:href="#m4af56e6d32" y="67.509259"/>
      </g>
     </g>
     <g id="text_19">
      <!-- 2.6 -->
      <g transform="translate(229.489602 71.308478)scale(0.1 -0.1)">
       <use xlink:href="#DejaVuSans-32"/>
       <use x="63.623047" xlink:href="#DejaVuSans-2e"/>
       <use x="95.410156" xlink:href="#DejaVuSans-36"/>
      </g>
     </g>
    </g>
    <g id="text_20">
     <!-- |3.34-6.37| [nm] -->
     <g transform="translate(223.13179 142.919969)rotate(-90)scale(0.1 -0.1)">
      <use xlink:href="#DejaVuSans-7c"/>
      <use x="33.691406" xlink:href="#DejaVuSans-33"/>
      <use x="97.314453" xlink:href="#DejaVuSans-2e"/>
      <use x="129.101562" xlink:href="#DejaVuSans-33"/>
      <use x="192.724609" xlink:href="#DejaVuSans-34"/>
      <use x="256.347656" xlink:href="#DejaVuSans-2d"/>
      <use x="292.431641" xlink:href="#DejaVuSans-36"/>
      <use x="356.054688" xlink:href="#DejaVuSans-2e"/>
      <use x="387.841797" xlink:href="#DejaVuSans-33"/>
      <use x="451.464844" xlink:href="#DejaVuSans-37"/>
      <use x="515.087891" xlink:href="#DejaVuSans-7c"/>
      <use x="548.779297" xlink:href="#DejaVuSans-20"/>
      <use x="580.566406" xlink:href="#DejaVuSans-5b"/>
      <use x="619.580078" xlink:href="#DejaVuSans-6e"/>
      <use x="682.958984" xlink:href="#DejaVuSans-6d"/>
      <use x="780.371094" xlink:href="#DejaVuSans-5d"/>
     </g>
    </g>
   </g>
   <g id="line2d_39">
    <g clip-path="url(#p7e0852e394)">
     <use style="fill:#6a5acd;stroke:#6a5acd;stroke-linejoin:bevel;" x="312.554887" xlink:href="#m12f431377b" y="59.257378"/>
    </g>
   </g>
   <g id="line2d_40">
    <g clip-path="url(#p7e0852e394)">
     <use style="fill:#6a5acd;stroke:#6a5acd;stroke-linejoin:miter;" x="380.475061" xlink:href="#m3ac92ba4cb" y="132.209175"/>
    </g>
   </g>
   <g id="line2d_41">
    <g clip-path="url(#p7e0852e394)">
     <use style="fill:#00fa9a;stroke:#00fa9a;stroke-linejoin:bevel;" x="310.177651" xlink:href="#m36d9552c84" y="61.384768"/>
    </g>
   </g>
   <g id="line2d_42">
    <g clip-path="url(#p7e0852e394)">
     <use style="fill:#00fa9a;stroke:#00fa9a;stroke-linejoin:miter;" x="374.494278" xlink:href="#mf017742709" y="138.352647"/>
    </g>
   </g>
   <g id="line2d_43">
    <g clip-path="url(#p7e0852e394)">
     <use style="fill:#a0522d;stroke:#a0522d;stroke-linejoin:bevel;" x="280.899646" xlink:href="#m88f6bff7ec" y="52.446735"/>
    </g>
   </g>
   <g id="line2d_44">
    <g clip-path="url(#p7e0852e394)">
     <use style="fill:#a0522d;stroke:#a0522d;stroke-linejoin:miter;" x="400.624091" xlink:href="#m25d611a70b" y="131.380142"/>
    </g>
   </g>
   <g id="line2d_45">
    <g clip-path="url(#p7e0852e394)">
     <use style="fill:#e9967a;stroke:#e9967a;stroke-linejoin:bevel;" x="303.62342" xlink:href="#m6138e7476e" y="53.242956"/>
    </g>
   </g>
   <g id="line2d_46">
    <g clip-path="url(#p7e0852e394)">
     <use style="fill:#e9967a;stroke:#e9967a;stroke-linejoin:miter;" x="383.231376" xlink:href="#m707ab10a48" y="132.790458"/>
    </g>
   </g>
   <g id="line2d_47">
    <g clip-path="url(#p7e0852e394)">
     <use style="fill:#ee82ee;stroke:#ee82ee;stroke-linejoin:bevel;" x="294.839668" xlink:href="#mfa3a0f8bb6" y="71.785257"/>
    </g>
   </g>
   <g id="line2d_48">
    <g clip-path="url(#p7e0852e394)">
     <use style="fill:#ee82ee;stroke:#ee82ee;stroke-linejoin:miter;" x="360.60421" xlink:href="#m621214f90c" y="127.613831"/>
    </g>
   </g>
   <g id="line2d_49">
    <g clip-path="url(#p7e0852e394)">
     <use style="fill:#ff6347;stroke:#ff6347;stroke-linejoin:bevel;" x="297.816189" xlink:href="#m3ba7dc134f" y="65.484394"/>
    </g>
   </g>
   <g id="line2d_50">
    <g clip-path="url(#p7e0852e394)">
     <use style="fill:#ff6347;stroke:#ff6347;stroke-linejoin:miter;" x="368.926166" xlink:href="#m330a82f636" y="123.575899"/>
    </g>
   </g>
   <g id="line2d_51">
    <g clip-path="url(#p7e0852e394)">
     <use style="fill:#2f4f4f;stroke:#2f4f4f;stroke-linejoin:bevel;" x="331.309905" xlink:href="#m7cc45bff9e" y="63.887013"/>
    </g>
   </g>
   <g id="line2d_52">
    <g clip-path="url(#p7e0852e394)">
     <use style="fill:#2f4f4f;stroke:#2f4f4f;stroke-linejoin:miter;" x="335.773806" xlink:href="#ma52b76e139" y="153.860424"/>
    </g>
   </g>
   <g id="line2d_53">
    <g clip-path="url(#p7e0852e394)">
     <use style="fill:#808000;stroke:#808000;stroke-linejoin:bevel;" x="274.803687" xlink:href="#m95e2bec634" y="66.406709"/>
    </g>
   </g>
   <g id="line2d_54">
    <g clip-path="url(#p7e0852e394)">
     <use style="fill:#808000;stroke:#808000;stroke-linejoin:miter;" x="321.381526" xlink:href="#me400d5fd3d" y="145.843117"/>
    </g>
   </g>
   <g id="line2d_55">
    <g clip-path="url(#p7e0852e394)">
     <use style="fill:#9acd32;stroke:#9acd32;stroke-linejoin:bevel;" x="259.77124" xlink:href="#mdf86f6c0c9" y="68.054715"/>
    </g>
   </g>
   <g id="line2d_56">
    <g clip-path="url(#p7e0852e394)">
     <use style="fill:#9acd32;stroke:#9acd32;stroke-linejoin:miter;" x="334.610833" xlink:href="#m42e74d4aab" y="146.105724"/>
    </g>
   </g>
   <g id="line2d_57">
    <g clip-path="url(#p7e0852e394)">
     <use style="fill:#ffd700;stroke:#ffd700;stroke-linejoin:bevel;" x="307.466228" xlink:href="#mc9f1016bbd" y="46.970182"/>
    </g>
   </g>
   <g id="line2d_58">
    <g clip-path="url(#p7e0852e394)">
     <use style="fill:#ffd700;stroke:#ffd700;stroke-linejoin:miter;" x="372.008609" xlink:href="#m0ddf69354b" y="151.224551"/>
    </g>
   </g>
   <g id="line2d_59">
    <g clip-path="url(#p7e0852e394)">
     <use style="fill:#c0c0c0;stroke:#c0c0c0;stroke-linejoin:bevel;" x="293.687144" xlink:href="#mb9bf9edaff" y="63.171596"/>
    </g>
   </g>
   <g id="line2d_60">
    <g clip-path="url(#p7e0852e394)">
     <use style="fill:#c0c0c0;stroke:#c0c0c0;stroke-linejoin:miter;" x="407.341488" xlink:href="#mcb4893a03a" y="156.933818"/>
    </g>
   </g>
   <g id="patch_8">
    <path d="M 252.392727 162.432 
L 252.392727 41.472 
" style="fill:none;stroke:#000000;stroke-linecap:square;stroke-linejoin:miter;stroke-width:0.8;"/>
   </g>
   <g id="patch_9">
    <path d="M 414.72 162.432 
L 414.72 41.472 
" style="fill:none;stroke:#000000;stroke-linecap:square;stroke-linejoin:miter;stroke-width:0.8;"/>
   </g>
   <g id="patch_10">
    <path d="M 252.392727 162.432 
L 414.72 162.432 
" style="fill:none;stroke:#000000;stroke-linecap:square;stroke-linejoin:miter;stroke-width:0.8;"/>
   </g>
   <g id="patch_11">
    <path d="M 252.392727 41.472 
L 414.72 41.472 
" style="fill:none;stroke:#000000;stroke-linecap:square;stroke-linejoin:miter;stroke-width:0.8;"/>
   </g>
  </g>
  <g id="axes_3">
   <g id="patch_12">
    <path d="M 57.6 307.584 
L 219.927273 307.584 
L 219.927273 186.624 
L 57.6 186.624 
z
" style="fill:#ffffff;"/>
   </g>
   <g id="matplotlib.axis_5">
    <g id="xtick_8">
     <g id="line2d_61">
      <g>
       <use style="stroke:#000000;stroke-width:0.8;" x="71.815697" xlink:href="#m71c1844619" y="307.584"/>
      </g>
     </g>
     <g id="text_21">
      <!-- 1.0 -->
      <g transform="translate(63.864135 322.182437)scale(0.1 -0.1)">
       <use xlink:href="#DejaVuSans-31"/>
       <use x="63.623047" xlink:href="#DejaVuSans-2e"/>
       <use x="95.410156" xlink:href="#DejaVuSans-30"/>
      </g>
     </g>
    </g>
    <g id="xtick_9">
     <g id="line2d_62">
      <g>
       <use style="stroke:#000000;stroke-width:0.8;" x="108.783636" xlink:href="#m71c1844619" y="307.584"/>
      </g>
     </g>
     <g id="text_22">
      <!-- 1.2 -->
      <g transform="translate(100.832074 322.182437)scale(0.1 -0.1)">
       <use xlink:href="#DejaVuSans-31"/>
       <use x="63.623047" xlink:href="#DejaVuSans-2e"/>
       <use x="95.410156" xlink:href="#DejaVuSans-32"/>
      </g>
     </g>
    </g>
    <g id="xtick_10">
     <g id="line2d_63">
      <g>
       <use style="stroke:#000000;stroke-width:0.8;" x="145.751575" xlink:href="#m71c1844619" y="307.584"/>
      </g>
     </g>
     <g id="text_23">
      <!-- 1.4 -->
      <g transform="translate(137.800013 322.182437)scale(0.1 -0.1)">
       <use xlink:href="#DejaVuSans-31"/>
       <use x="63.623047" xlink:href="#DejaVuSans-2e"/>
       <use x="95.410156" xlink:href="#DejaVuSans-34"/>
      </g>
     </g>
    </g>
    <g id="xtick_11">
     <g id="line2d_64">
      <g>
       <use style="stroke:#000000;stroke-width:0.8;" x="182.719514" xlink:href="#m71c1844619" y="307.584"/>
      </g>
     </g>
     <g id="text_24">
      <!-- 1.6 -->
      <g transform="translate(174.767952 322.182437)scale(0.1 -0.1)">
       <use xlink:href="#DejaVuSans-31"/>
       <use x="63.623047" xlink:href="#DejaVuSans-2e"/>
       <use x="95.410156" xlink:href="#DejaVuSans-36"/>
      </g>
     </g>
    </g>
    <g id="xtick_12">
     <g id="line2d_65">
      <g>
       <use style="stroke:#000000;stroke-width:0.8;" x="219.687454" xlink:href="#m71c1844619" y="307.584"/>
      </g>
     </g>
     <g id="text_25">
      <!-- 1.8 -->
      <g transform="translate(211.735891 322.182437)scale(0.1 -0.1)">
       <use xlink:href="#DejaVuSans-31"/>
       <use x="63.623047" xlink:href="#DejaVuSans-2e"/>
       <use x="95.410156" xlink:href="#DejaVuSans-38"/>
      </g>
     </g>
    </g>
    <g id="text_26">
     <!-- |6.29-5.62| [nm] -->
     <g transform="translate(97.795668 335.904313)scale(0.1 -0.1)">
      <use xlink:href="#DejaVuSans-7c"/>
      <use x="33.691406" xlink:href="#DejaVuSans-36"/>
      <use x="97.314453" xlink:href="#DejaVuSans-2e"/>
      <use x="129.101562" xlink:href="#DejaVuSans-32"/>
      <use x="192.724609" xlink:href="#DejaVuSans-39"/>
      <use x="256.347656" xlink:href="#DejaVuSans-2d"/>
      <use x="292.431641" xlink:href="#DejaVuSans-35"/>
      <use x="356.054688" xlink:href="#DejaVuSans-2e"/>
      <use x="387.841797" xlink:href="#DejaVuSans-36"/>
      <use x="451.464844" xlink:href="#DejaVuSans-32"/>
      <use x="515.087891" xlink:href="#DejaVuSans-7c"/>
      <use x="548.779297" xlink:href="#DejaVuSans-20"/>
      <use x="580.566406" xlink:href="#DejaVuSans-5b"/>
      <use x="619.580078" xlink:href="#DejaVuSans-6e"/>
      <use x="682.958984" xlink:href="#DejaVuSans-6d"/>
      <use x="780.371094" xlink:href="#DejaVuSans-5d"/>
     </g>
    </g>
   </g>
   <g id="matplotlib.axis_6">
    <g id="ytick_10">
     <g id="line2d_66">
      <g>
       <use style="stroke:#000000;stroke-width:0.8;" x="57.6" xlink:href="#m4af56e6d32" y="303.402853"/>
      </g>
     </g>
     <g id="text_27">
      <!-- 2.0 -->
      <g transform="translate(34.696875 307.202072)scale(0.1 -0.1)">
       <use xlink:href="#DejaVuSans-32"/>
       <use x="63.623047" xlink:href="#DejaVuSans-2e"/>
       <use x="95.410156" xlink:href="#DejaVuSans-30"/>
      </g>
     </g>
    </g>
    <g id="ytick_11">
     <g id="line2d_67">
      <g>
       <use style="stroke:#000000;stroke-width:0.8;" x="57.6" xlink:href="#m4af56e6d32" y="273.155655"/>
      </g>
     </g>
     <g id="text_28">
      <!-- 2.2 -->
      <g transform="translate(34.696875 276.954874)scale(0.1 -0.1)">
       <use xlink:href="#DejaVuSans-32"/>
       <use x="63.623047" xlink:href="#DejaVuSans-2e"/>
       <use x="95.410156" xlink:href="#DejaVuSans-32"/>
      </g>
     </g>
    </g>
    <g id="ytick_12">
     <g id="line2d_68">
      <g>
       <use style="stroke:#000000;stroke-width:0.8;" x="57.6" xlink:href="#m4af56e6d32" y="242.908457"/>
      </g>
     </g>
     <g id="text_29">
      <!-- 2.4 -->
      <g transform="translate(34.696875 246.707676)scale(0.1 -0.1)">
       <use xlink:href="#DejaVuSans-32"/>
       <use x="63.623047" xlink:href="#DejaVuSans-2e"/>
       <use x="95.410156" xlink:href="#DejaVuSans-34"/>
      </g>
     </g>
    </g>
    <g id="ytick_13">
     <g id="line2d_69">
      <g>
       <use style="stroke:#000000;stroke-width:0.8;" x="57.6" xlink:href="#m4af56e6d32" y="212.661259"/>
      </g>
     </g>
     <g id="text_30">
      <!-- 2.6 -->
      <g transform="translate(34.696875 216.460478)scale(0.1 -0.1)">
       <use xlink:href="#DejaVuSans-32"/>
       <use x="63.623047" xlink:href="#DejaVuSans-2e"/>
       <use x="95.410156" xlink:href="#DejaVuSans-36"/>
      </g>
     </g>
    </g>
    <g id="text_31">
     <!-- |3.34-6.37| [nm] -->
     <g transform="translate(28.339062 288.071969)rotate(-90)scale(0.1 -0.1)">
      <use xlink:href="#DejaVuSans-7c"/>
      <use x="33.691406" xlink:href="#DejaVuSans-33"/>
      <use x="97.314453" xlink:href="#DejaVuSans-2e"/>
      <use x="129.101562" xlink:href="#DejaVuSans-33"/>
      <use x="192.724609" xlink:href="#DejaVuSans-34"/>
      <use x="256.347656" xlink:href="#DejaVuSans-2d"/>
      <use x="292.431641" xlink:href="#DejaVuSans-36"/>
      <use x="356.054688" xlink:href="#DejaVuSans-2e"/>
      <use x="387.841797" xlink:href="#DejaVuSans-33"/>
      <use x="451.464844" xlink:href="#DejaVuSans-37"/>
      <use x="515.087891" xlink:href="#DejaVuSans-7c"/>
      <use x="548.779297" xlink:href="#DejaVuSans-20"/>
      <use x="580.566406" xlink:href="#DejaVuSans-5b"/>
      <use x="619.580078" xlink:href="#DejaVuSans-6e"/>
      <use x="682.958984" xlink:href="#DejaVuSans-6d"/>
      <use x="780.371094" xlink:href="#DejaVuSans-5d"/>
     </g>
    </g>
   </g>
   <g id="line2d_70">
    <g clip-path="url(#pfb5ffdf955)">
     <use style="fill:#6a5acd;stroke:#6a5acd;stroke-linejoin:bevel;" x="138.252026" xlink:href="#m12f431377b" y="204.409378"/>
    </g>
   </g>
   <g id="line2d_71">
    <g clip-path="url(#pfb5ffdf955)">
     <use style="fill:#6a5acd;stroke:#6a5acd;stroke-linejoin:miter;" x="147.454031" xlink:href="#m3ac92ba4cb" y="277.361175"/>
    </g>
   </g>
   <g id="line2d_72">
    <g clip-path="url(#pfb5ffdf955)">
     <use style="fill:#00fa9a;stroke:#00fa9a;stroke-linejoin:bevel;" x="128.833861" xlink:href="#m36d9552c84" y="206.536768"/>
    </g>
   </g>
   <g id="line2d_73">
    <g clip-path="url(#pfb5ffdf955)">
     <use style="fill:#00fa9a;stroke:#00fa9a;stroke-linejoin:miter;" x="151.488568" xlink:href="#mf017742709" y="283.504647"/>
    </g>
   </g>
   <g id="line2d_74">
    <g clip-path="url(#pfb5ffdf955)">
     <use style="fill:#a0522d;stroke:#a0522d;stroke-linejoin:bevel;" x="100.383039" xlink:href="#m88f6bff7ec" y="197.598735"/>
    </g>
   </g>
   <g id="line2d_75">
    <g clip-path="url(#pfb5ffdf955)">
     <use style="fill:#a0522d;stroke:#a0522d;stroke-linejoin:miter;" x="109.868673" xlink:href="#m25d611a70b" y="276.532142"/>
    </g>
   </g>
   <g id="line2d_76">
    <g clip-path="url(#pfb5ffdf955)">
     <use style="fill:#e9967a;stroke:#e9967a;stroke-linejoin:bevel;" x="99.941619" xlink:href="#m6138e7476e" y="198.394956"/>
    </g>
   </g>
   <g id="line2d_77">
    <g clip-path="url(#pfb5ffdf955)">
     <use style="fill:#e9967a;stroke:#e9967a;stroke-linejoin:miter;" x="104.602534" xlink:href="#m707ab10a48" y="277.942458"/>
    </g>
   </g>
   <g id="line2d_78">
    <g clip-path="url(#pfb5ffdf955)">
     <use style="fill:#ee82ee;stroke:#ee82ee;stroke-linejoin:bevel;" x="85.790531" xlink:href="#mfa3a0f8bb6" y="216.937257"/>
    </g>
   </g>
   <g id="line2d_79">
    <g clip-path="url(#pfb5ffdf955)">
     <use style="fill:#ee82ee;stroke:#ee82ee;stroke-linejoin:miter;" x="197.148155" xlink:href="#m621214f90c" y="272.765831"/>
    </g>
   </g>
   <g id="line2d_80">
    <g clip-path="url(#pfb5ffdf955)">
     <use style="fill:#ff6347;stroke:#ff6347;stroke-linejoin:bevel;" x="113.305676" xlink:href="#m3ba7dc134f" y="210.636394"/>
    </g>
   </g>
   <g id="line2d_81">
    <g clip-path="url(#pfb5ffdf955)">
     <use style="fill:#ff6347;stroke:#ff6347;stroke-linejoin:miter;" x="121.449821" xlink:href="#m330a82f636" y="268.727899"/>
    </g>
   </g>
   <g id="line2d_82">
    <g clip-path="url(#pfb5ffdf955)">
     <use style="fill:#2f4f4f;stroke:#2f4f4f;stroke-linejoin:bevel;" x="78.150074" xlink:href="#m7cc45bff9e" y="209.039013"/>
    </g>
   </g>
   <g id="line2d_83">
    <g clip-path="url(#pfb5ffdf955)">
     <use style="fill:#2f4f4f;stroke:#2f4f4f;stroke-linejoin:miter;" x="203.486829" xlink:href="#ma52b76e139" y="299.012424"/>
    </g>
   </g>
   <g id="line2d_84">
    <g clip-path="url(#pfb5ffdf955)">
     <use style="fill:#808000;stroke:#808000;stroke-linejoin:bevel;" x="71.931996" xlink:href="#m95e2bec634" y="211.558709"/>
    </g>
   </g>
   <g id="line2d_85">
    <g clip-path="url(#pfb5ffdf955)">
     <use style="fill:#808000;stroke:#808000;stroke-linejoin:miter;" x="182.150607" xlink:href="#me400d5fd3d" y="290.995117"/>
    </g>
   </g>
   <g id="line2d_86">
    <g clip-path="url(#pfb5ffdf955)">
     <use style="fill:#9acd32;stroke:#9acd32;stroke-linejoin:bevel;" x="86.132905" xlink:href="#mdf86f6c0c9" y="213.206715"/>
    </g>
   </g>
   <g id="line2d_87">
    <g clip-path="url(#pfb5ffdf955)">
     <use style="fill:#9acd32;stroke:#9acd32;stroke-linejoin:miter;" x="212.54876" xlink:href="#m42e74d4aab" y="291.257724"/>
    </g>
   </g>
   <g id="line2d_88">
    <g clip-path="url(#pfb5ffdf955)">
     <use style="fill:#ffd700;stroke:#ffd700;stroke-linejoin:bevel;" x="64.978512" xlink:href="#mc9f1016bbd" y="192.122182"/>
    </g>
   </g>
   <g id="line2d_89">
    <g clip-path="url(#pfb5ffdf955)">
     <use style="fill:#ffd700;stroke:#ffd700;stroke-linejoin:miter;" x="121.067124" xlink:href="#m0ddf69354b" y="296.376551"/>
    </g>
   </g>
   <g id="line2d_90">
    <g clip-path="url(#pfb5ffdf955)">
     <use style="fill:#c0c0c0;stroke:#c0c0c0;stroke-linejoin:bevel;" x="76.65333" xlink:href="#mb9bf9edaff" y="208.323596"/>
    </g>
   </g>
   <g id="line2d_91">
    <g clip-path="url(#pfb5ffdf955)">
     <use style="fill:#c0c0c0;stroke:#c0c0c0;stroke-linejoin:miter;" x="110.987657" xlink:href="#mcb4893a03a" y="302.085818"/>
    </g>
   </g>
   <g id="patch_13">
    <path d="M 57.6 307.584 
L 57.6 186.624 
" style="fill:none;stroke:#000000;stroke-linecap:square;stroke-linejoin:miter;stroke-width:0.8;"/>
   </g>
   <g id="patch_14">
    <path d="M 219.927273 307.584 
L 219.927273 186.624 
" style="fill:none;stroke:#000000;stroke-linecap:square;stroke-linejoin:miter;stroke-width:0.8;"/>
   </g>
   <g id="patch_15">
    <path d="M 57.6 307.584 
L 219.927273 307.584 
" style="fill:none;stroke:#000000;stroke-linecap:square;stroke-linejoin:miter;stroke-width:0.8;"/>
   </g>
   <g id="patch_16">
    <path d="M 57.6 186.624 
L 219.927273 186.624 
" style="fill:none;stroke:#000000;stroke-linecap:square;stroke-linejoin:miter;stroke-width:0.8;"/>
   </g>
   <g id="legend_1">
    <g id="patch_17">
     <path d="M 267.509091 313.1765 
L 443.432528 313.1765 
Q 445.432528 313.1765 445.432528 311.1765 
L 445.432528 223.864 
Q 445.432528 221.864 443.432528 221.864 
L 267.509091 221.864 
Q 265.509091 221.864 265.509091 223.864 
L 265.509091 311.1765 
Q 265.509091 313.1765 267.509091 313.1765 
z
" style="fill:#ffffff;opacity:0.8;stroke:#cccccc;stroke-linejoin:miter;"/>
    </g>
    <g id="line2d_92"/>
    <g id="line2d_93">
     <g>
      <use style="fill:#6a5acd;stroke:#6a5acd;stroke-linejoin:miter;" x="279.509091" xlink:href="#m3ac92ba4cb" y="230.064"/>
     </g>
    </g>
    <g id="text_32">
     <!-- $\beta_2$AR -->
     <defs>
      <path d="M 13.625 3.375 
L 8.9375 -20.796875 
L -0.09375 -20.796875 
L 14.5 54.34375 
Q 18.84375 76.609375 39.65625 76.609375 
Q 60.75 76.609375 57.171875 57.8125 
Q 54.734375 44.4375 45.21875 39.546875 
Q 58.015625 35.15625 55.515625 22.125 
Q 51.125 -1.078125 27.484375 -1.03125 
Q 17.140625 -0.984375 13.625 3.375 
z
M 15.921875 15.09375 
Q 19.671875 6.59375 29.296875 6.640625 
Q 43.359375 6.640625 46.34375 21.96875 
Q 49.03125 35.75 26.171875 34.671875 
L 27.78125 42.96875 
Q 45.453125 42.671875 48.53125 58.59375 
Q 50.640625 69.34375 39.203125 69.28125 
Q 26.421875 69.28125 23.484375 54.046875 
z
" id="DejaVuSans-Oblique-3b2"/>
      <path d="M 34.1875 63.1875 
L 20.796875 26.90625 
L 47.609375 26.90625 
z
M 28.609375 72.90625 
L 39.796875 72.90625 
L 67.578125 0 
L 57.328125 0 
L 50.6875 18.703125 
L 17.828125 18.703125 
L 11.1875 0 
L 0.78125 0 
z
" id="DejaVuSans-41"/>
      <path d="M 44.390625 34.1875 
Q 47.5625 33.109375 50.5625 29.59375 
Q 53.5625 26.078125 56.59375 19.921875 
L 66.609375 0 
L 56 0 
L 46.6875 18.703125 
Q 43.0625 26.03125 39.671875 28.421875 
Q 36.28125 30.8125 30.421875 30.8125 
L 19.671875 30.8125 
L 19.671875 0 
L 9.8125 0 
L 9.8125 72.90625 
L 32.078125 72.90625 
Q 44.578125 72.90625 50.734375 67.671875 
Q 56.890625 62.453125 56.890625 51.90625 
Q 56.890625 45.015625 53.6875 40.46875 
Q 50.484375 35.9375 44.390625 34.1875 
z
M 19.671875 64.796875 
L 19.671875 38.921875 
L 32.078125 38.921875 
Q 39.203125 38.921875 42.84375 42.21875 
Q 46.484375 45.515625 46.484375 51.90625 
Q 46.484375 58.296875 42.84375 61.546875 
Q 39.203125 64.796875 32.078125 64.796875 
z
" id="DejaVuSans-52"/>
     </defs>
     <g transform="translate(297.509091 233.564)scale(0.1 -0.1)">
      <use transform="translate(0 0.390625)" xlink:href="#DejaVuSans-Oblique-3b2"/>
      <use transform="translate(63.818359 -16.015625)scale(0.7)" xlink:href="#DejaVuSans-32"/>
      <use transform="translate(111.088867 0.390625)" xlink:href="#DejaVuSans-41"/>
      <use transform="translate(179.49707 0.390625)" xlink:href="#DejaVuSans-52"/>
     </g>
    </g>
    <g id="line2d_94"/>
    <g id="line2d_95">
     <g>
      <use style="fill:#00fa9a;stroke:#00fa9a;stroke-linejoin:miter;" x="279.509091" xlink:href="#mf017742709" y="244.864"/>
     </g>
    </g>
    <g id="text_33">
     <!-- $\beta_1$AR -->
     <g transform="translate(297.509091 248.364)scale(0.1 -0.1)">
      <use transform="translate(0 0.390625)" xlink:href="#DejaVuSans-Oblique-3b2"/>
      <use transform="translate(63.818359 -16.015625)scale(0.7)" xlink:href="#DejaVuSans-31"/>
      <use transform="translate(111.088867 0.390625)" xlink:href="#DejaVuSans-41"/>
      <use transform="translate(179.49707 0.390625)" xlink:href="#DejaVuSans-52"/>
     </g>
    </g>
    <g id="line2d_96"/>
    <g id="line2d_97">
     <g>
      <use style="fill:#a0522d;stroke:#a0522d;stroke-linejoin:miter;" x="279.509091" xlink:href="#m25d611a70b" y="259.562437"/>
     </g>
    </g>
    <g id="text_34">
     <!-- A$_1$ -->
     <g transform="translate(297.509091 263.062437)scale(0.1 -0.1)">
      <use transform="translate(0 0.09375)" xlink:href="#DejaVuSans-41"/>
      <use transform="translate(69.365234 -16.3125)scale(0.7)" xlink:href="#DejaVuSans-31"/>
     </g>
    </g>
    <g id="line2d_98"/>
    <g id="line2d_99">
     <g>
      <use style="fill:#e9967a;stroke:#e9967a;stroke-linejoin:miter;" x="279.509091" xlink:href="#m707ab10a48" y="274.240563"/>
     </g>
    </g>
    <g id="text_35">
     <!-- A$_{2A}$ -->
     <defs>
      <path d="M 36.8125 72.90625 
L 48 72.90625 
L 61.53125 0 
L 51.21875 0 
L 48.1875 18.703125 
L 15.375 18.703125 
L 5.078125 0 
L -5.328125 0 
z
M 40.375 63.1875 
L 19.921875 26.90625 
L 46.6875 26.90625 
z
" id="DejaVuSans-Oblique-41"/>
     </defs>
     <g transform="translate(297.509091 277.740563)scale(0.1 -0.1)">
      <use transform="translate(0 0.09375)" xlink:href="#DejaVuSans-41"/>
      <use transform="translate(69.365234 -16.3125)scale(0.7)" xlink:href="#DejaVuSans-32"/>
      <use transform="translate(113.901367 -16.3125)scale(0.7)" xlink:href="#DejaVuSans-Oblique-41"/>
     </g>
    </g>
    <g id="line2d_100"/>
    <g id="line2d_101">
     <g>
      <use style="fill:#ee82ee;stroke:#ee82ee;stroke-linejoin:miter;" x="279.509091" xlink:href="#m621214f90c" y="288.918687"/>
     </g>
    </g>
    <g id="text_36">
     <!-- M$_2$ -->
     <defs>
      <path d="M 9.8125 72.90625 
L 24.515625 72.90625 
L 43.109375 23.296875 
L 61.8125 72.90625 
L 76.515625 72.90625 
L 76.515625 0 
L 66.890625 0 
L 66.890625 64.015625 
L 48.09375 14.015625 
L 38.1875 14.015625 
L 19.390625 64.015625 
L 19.390625 0 
L 9.8125 0 
z
" id="DejaVuSans-4d"/>
     </defs>
     <g transform="translate(297.509091 292.418687)scale(0.1 -0.1)">
      <use transform="translate(0 0.09375)" xlink:href="#DejaVuSans-4d"/>
      <use transform="translate(87.236328 -16.3125)scale(0.7)" xlink:href="#DejaVuSans-32"/>
     </g>
    </g>
    <g id="line2d_102"/>
    <g id="line2d_103">
     <g>
      <use style="fill:#ff6347;stroke:#ff6347;stroke-linejoin:miter;" x="279.509091" xlink:href="#m330a82f636" y="303.596812"/>
     </g>
    </g>
    <g id="text_37">
     <!-- 5-HT$_{1B}$ -->
     <defs>
      <path d="M 9.8125 72.90625 
L 19.671875 72.90625 
L 19.671875 43.015625 
L 55.515625 43.015625 
L 55.515625 72.90625 
L 65.375 72.90625 
L 65.375 0 
L 55.515625 0 
L 55.515625 34.71875 
L 19.671875 34.71875 
L 19.671875 0 
L 9.8125 0 
z
" id="DejaVuSans-48"/>
      <path d="M -0.296875 72.90625 
L 61.375 72.90625 
L 61.375 64.59375 
L 35.5 64.59375 
L 35.5 0 
L 25.59375 0 
L 25.59375 64.59375 
L -0.296875 64.59375 
z
" id="DejaVuSans-54"/>
      <path d="M 16.890625 72.90625 
L 42.09375 72.90625 
Q 52.34375 72.90625 57.421875 69.09375 
Q 62.5 65.28125 62.5 57.625 
Q 62.5 50.59375 58.125 45.484375 
Q 53.765625 40.375 46.6875 39.3125 
Q 52.734375 37.9375 55.765625 34.078125 
Q 58.796875 30.21875 58.796875 23.78125 
Q 58.796875 12.796875 50.65625 6.390625 
Q 42.53125 0 28.421875 0 
L 2.6875 0 
z
M 19.28125 34.8125 
L 14.109375 8.109375 
L 29.984375 8.109375 
Q 38.921875 8.109375 43.75 12.203125 
Q 48.578125 16.3125 48.578125 23.78125 
Q 48.578125 29.546875 45.375 32.171875 
Q 42.1875 34.8125 35.109375 34.8125 
z
M 25.09375 64.796875 
L 20.796875 42.828125 
L 35.5 42.828125 
Q 43.359375 42.828125 47.78125 46.234375 
Q 52.203125 49.65625 52.203125 55.71875 
Q 52.203125 60.453125 49.21875 62.625 
Q 46.234375 64.796875 39.703125 64.796875 
z
" id="DejaVuSans-Oblique-42"/>
     </defs>
     <g transform="translate(297.509091 307.096812)scale(0.1 -0.1)">
      <use transform="translate(0 0.09375)" xlink:href="#DejaVuSans-35"/>
      <use transform="translate(63.623047 0.09375)" xlink:href="#DejaVuSans-2d"/>
      <use transform="translate(99.707031 0.09375)" xlink:href="#DejaVuSans-48"/>
      <use transform="translate(174.902344 0.09375)" xlink:href="#DejaVuSans-54"/>
      <use transform="translate(236.943359 -16.3125)scale(0.7)" xlink:href="#DejaVuSans-31"/>
      <use transform="translate(281.479492 -16.3125)scale(0.7)" xlink:href="#DejaVuSans-Oblique-42"/>
     </g>
    </g>
    <g id="line2d_104"/>
    <g id="line2d_105">
     <g>
      <use style="fill:#2f4f4f;stroke:#2f4f4f;stroke-linejoin:miter;" x="360.809091" xlink:href="#ma52b76e139" y="230.064"/>
     </g>
    </g>
    <g id="text_38">
     <!-- Rhodopsin -->
     <defs>
      <path d="M 54.890625 33.015625 
L 54.890625 0 
L 45.90625 0 
L 45.90625 32.71875 
Q 45.90625 40.484375 42.875 44.328125 
Q 39.84375 48.1875 33.796875 48.1875 
Q 26.515625 48.1875 22.3125 43.546875 
Q 18.109375 38.921875 18.109375 30.90625 
L 18.109375 0 
L 9.078125 0 
L 9.078125 75.984375 
L 18.109375 75.984375 
L 18.109375 46.1875 
Q 21.34375 51.125 25.703125 53.5625 
Q 30.078125 56 35.796875 56 
Q 45.21875 56 50.046875 50.171875 
Q 54.890625 44.34375 54.890625 33.015625 
z
" id="DejaVuSans-68"/>
      <path d="M 30.609375 48.390625 
Q 23.390625 48.390625 19.1875 42.75 
Q 14.984375 37.109375 14.984375 27.296875 
Q 14.984375 17.484375 19.15625 11.84375 
Q 23.34375 6.203125 30.609375 6.203125 
Q 37.796875 6.203125 41.984375 11.859375 
Q 46.1875 17.53125 46.1875 27.296875 
Q 46.1875 37.015625 41.984375 42.703125 
Q 37.796875 48.390625 30.609375 48.390625 
z
M 30.609375 56 
Q 42.328125 56 49.015625 48.375 
Q 55.71875 40.765625 55.71875 27.296875 
Q 55.71875 13.875 49.015625 6.21875 
Q 42.328125 -1.421875 30.609375 -1.421875 
Q 18.84375 -1.421875 12.171875 6.21875 
Q 5.515625 13.875 5.515625 27.296875 
Q 5.515625 40.765625 12.171875 48.375 
Q 18.84375 56 30.609375 56 
z
" id="DejaVuSans-6f"/>
      <path d="M 45.40625 46.390625 
L 45.40625 75.984375 
L 54.390625 75.984375 
L 54.390625 0 
L 45.40625 0 
L 45.40625 8.203125 
Q 42.578125 3.328125 38.25 0.953125 
Q 33.9375 -1.421875 27.875 -1.421875 
Q 17.96875 -1.421875 11.734375 6.484375 
Q 5.515625 14.40625 5.515625 27.296875 
Q 5.515625 40.1875 11.734375 48.09375 
Q 17.96875 56 27.875 56 
Q 33.9375 56 38.25 53.625 
Q 42.578125 51.265625 45.40625 46.390625 
z
M 14.796875 27.296875 
Q 14.796875 17.390625 18.875 11.75 
Q 22.953125 6.109375 30.078125 6.109375 
Q 37.203125 6.109375 41.296875 11.75 
Q 45.40625 17.390625 45.40625 27.296875 
Q 45.40625 37.203125 41.296875 42.84375 
Q 37.203125 48.484375 30.078125 48.484375 
Q 22.953125 48.484375 18.875 42.84375 
Q 14.796875 37.203125 14.796875 27.296875 
z
" id="DejaVuSans-64"/>
      <path d="M 18.109375 8.203125 
L 18.109375 -20.796875 
L 9.078125 -20.796875 
L 9.078125 54.6875 
L 18.109375 54.6875 
L 18.109375 46.390625 
Q 20.953125 51.265625 25.265625 53.625 
Q 29.59375 56 35.59375 56 
Q 45.5625 56 51.78125 48.09375 
Q 58.015625 40.1875 58.015625 27.296875 
Q 58.015625 14.40625 51.78125 6.484375 
Q 45.5625 -1.421875 35.59375 -1.421875 
Q 29.59375 -1.421875 25.265625 0.953125 
Q 20.953125 3.328125 18.109375 8.203125 
z
M 48.6875 27.296875 
Q 48.6875 37.203125 44.609375 42.84375 
Q 40.53125 48.484375 33.40625 48.484375 
Q 26.265625 48.484375 22.1875 42.84375 
Q 18.109375 37.203125 18.109375 27.296875 
Q 18.109375 17.390625 22.1875 11.75 
Q 26.265625 6.109375 33.40625 6.109375 
Q 40.53125 6.109375 44.609375 11.75 
Q 48.6875 17.390625 48.6875 27.296875 
z
" id="DejaVuSans-70"/>
      <path d="M 44.28125 53.078125 
L 44.28125 44.578125 
Q 40.484375 46.53125 36.375 47.5 
Q 32.28125 48.484375 27.875 48.484375 
Q 21.1875 48.484375 17.84375 46.4375 
Q 14.5 44.390625 14.5 40.28125 
Q 14.5 37.15625 16.890625 35.375 
Q 19.28125 33.59375 26.515625 31.984375 
L 29.59375 31.296875 
Q 39.15625 29.25 43.1875 25.515625 
Q 47.21875 21.78125 47.21875 15.09375 
Q 47.21875 7.46875 41.1875 3.015625 
Q 35.15625 -1.421875 24.609375 -1.421875 
Q 20.21875 -1.421875 15.453125 -0.5625 
Q 10.6875 0.296875 5.421875 2 
L 5.421875 11.28125 
Q 10.40625 8.6875 15.234375 7.390625 
Q 20.0625 6.109375 24.8125 6.109375 
Q 31.15625 6.109375 34.5625 8.28125 
Q 37.984375 10.453125 37.984375 14.40625 
Q 37.984375 18.0625 35.515625 20.015625 
Q 33.0625 21.96875 24.703125 23.78125 
L 21.578125 24.515625 
Q 13.234375 26.265625 9.515625 29.90625 
Q 5.8125 33.546875 5.8125 39.890625 
Q 5.8125 47.609375 11.28125 51.796875 
Q 16.75 56 26.8125 56 
Q 31.78125 56 36.171875 55.265625 
Q 40.578125 54.546875 44.28125 53.078125 
z
" id="DejaVuSans-73"/>
      <path d="M 9.421875 54.6875 
L 18.40625 54.6875 
L 18.40625 0 
L 9.421875 0 
z
M 9.421875 75.984375 
L 18.40625 75.984375 
L 18.40625 64.59375 
L 9.421875 64.59375 
z
" id="DejaVuSans-69"/>
     </defs>
     <g transform="translate(378.809091 233.564)scale(0.1 -0.1)">
      <use xlink:href="#DejaVuSans-52"/>
      <use x="69.482422" xlink:href="#DejaVuSans-68"/>
      <use x="132.861328" xlink:href="#DejaVuSans-6f"/>
      <use x="194.042969" xlink:href="#DejaVuSans-64"/>
      <use x="257.519531" xlink:href="#DejaVuSans-6f"/>
      <use x="318.701172" xlink:href="#DejaVuSans-70"/>
      <use x="382.177734" xlink:href="#DejaVuSans-73"/>
      <use x="434.277344" xlink:href="#DejaVuSans-69"/>
      <use x="462.060547" xlink:href="#DejaVuSans-6e"/>
     </g>
    </g>
    <g id="line2d_106"/>
    <g id="line2d_107">
     <g>
      <use style="fill:#808000;stroke:#808000;stroke-linejoin:miter;" x="360.809091" xlink:href="#me400d5fd3d" y="244.743687"/>
     </g>
    </g>
    <g id="text_39">
     <!-- $\kappa$ opioid -->
     <defs>
      <path d="M 14.65625 54.6875 
L 23.921875 54.6875 
L 19.484375 31.984375 
L 47.515625 54.6875 
L 58.453125 54.6875 
L 32.90625 34.078125 
L 51.171875 0 
L 40.1875 0 
L 25.4375 28.21875 
L 17.53125 21.921875 
L 13.28125 0 
L 4 0 
z
" id="DejaVuSans-Oblique-3ba"/>
     </defs>
     <g transform="translate(378.809091 248.243687)scale(0.1 -0.1)">
      <use transform="translate(0 0.015625)" xlink:href="#DejaVuSans-Oblique-3ba"/>
      <use transform="translate(58.935547 0.015625)" xlink:href="#DejaVuSans-20"/>
      <use transform="translate(90.722656 0.015625)" xlink:href="#DejaVuSans-6f"/>
      <use transform="translate(151.904297 0.015625)" xlink:href="#DejaVuSans-70"/>
      <use transform="translate(215.380859 0.015625)" xlink:href="#DejaVuSans-69"/>
      <use transform="translate(243.164062 0.015625)" xlink:href="#DejaVuSans-6f"/>
      <use transform="translate(304.345703 0.015625)" xlink:href="#DejaVuSans-69"/>
      <use transform="translate(332.128906 0.015625)" xlink:href="#DejaVuSans-64"/>
     </g>
    </g>
    <g id="line2d_108"/>
    <g id="line2d_109">
     <g>
      <use style="fill:#9acd32;stroke:#9acd32;stroke-linejoin:miter;" x="360.809091" xlink:href="#m42e74d4aab" y="259.443688"/>
     </g>
    </g>
    <g id="text_40">
     <!-- $\mu$ opioid -->
     <defs>
      <path d="M -1.3125 -20.796875 
L 13.375 54.6875 
L 22.40625 54.6875 
L 15.765625 20.65625 
Q 15.578125 19.625 15.421875 18.359375 
Q 15.28125 17.09375 15.28125 15.828125 
Q 15.28125 11.28125 18.140625 8.828125 
Q 21 6.390625 26.3125 6.390625 
Q 33.546875 6.390625 37.984375 10.484375 
Q 42.4375 14.59375 44 22.796875 
L 50.203125 54.6875 
L 59.1875 54.6875 
L 51.03125 12.640625 
Q 50.828125 11.71875 50.75 11.03125 
Q 50.6875 10.359375 50.6875 9.8125 
Q 50.6875 8.296875 51.296875 7.59375 
Q 51.90625 6.890625 53.21875 6.890625 
Q 53.71875 6.890625 54.5625 7.125 
Q 55.421875 7.375 56.984375 8.015625 
L 55.609375 0.78125 
Q 53.46875 -0.296875 51.515625 -0.859375 
Q 49.5625 -1.421875 47.703125 -1.421875 
Q 44.484375 -1.421875 42.65625 0.625 
Q 40.828125 2.6875 40.828125 6.296875 
Q 38.09375 2.390625 34.296875 0.484375 
Q 30.515625 -1.421875 25.390625 -1.421875 
Q 20.84375 -1.421875 17.453125 0.671875 
Q 14.0625 2.78125 12.984375 6.203125 
L 7.71875 -20.796875 
z
" id="DejaVuSans-Oblique-3bc"/>
     </defs>
     <g transform="translate(378.809091 262.943688)scale(0.1 -0.1)">
      <use transform="translate(0 0.015625)" xlink:href="#DejaVuSans-Oblique-3bc"/>
      <use transform="translate(63.623047 0.015625)" xlink:href="#DejaVuSans-20"/>
      <use transform="translate(95.410156 0.015625)" xlink:href="#DejaVuSans-6f"/>
      <use transform="translate(156.591797 0.015625)" xlink:href="#DejaVuSans-70"/>
      <use transform="translate(220.068359 0.015625)" xlink:href="#DejaVuSans-69"/>
      <use transform="translate(247.851562 0.015625)" xlink:href="#DejaVuSans-6f"/>
      <use transform="translate(309.033203 0.015625)" xlink:href="#DejaVuSans-69"/>
      <use transform="translate(336.816406 0.015625)" xlink:href="#DejaVuSans-64"/>
     </g>
    </g>
    <g id="line2d_110"/>
    <g id="line2d_111">
     <g>
      <use style="fill:#ffd700;stroke:#ffd700;stroke-linejoin:miter;" x="360.809091" xlink:href="#m0ddf69354b" y="274.142125"/>
     </g>
    </g>
    <g id="text_41">
     <!-- Cannabinoid -->
     <defs>
      <path d="M 64.40625 67.28125 
L 64.40625 56.890625 
Q 59.421875 61.53125 53.78125 63.8125 
Q 48.140625 66.109375 41.796875 66.109375 
Q 29.296875 66.109375 22.65625 58.46875 
Q 16.015625 50.828125 16.015625 36.375 
Q 16.015625 21.96875 22.65625 14.328125 
Q 29.296875 6.6875 41.796875 6.6875 
Q 48.140625 6.6875 53.78125 8.984375 
Q 59.421875 11.28125 64.40625 15.921875 
L 64.40625 5.609375 
Q 59.234375 2.09375 53.4375 0.328125 
Q 47.65625 -1.421875 41.21875 -1.421875 
Q 24.65625 -1.421875 15.125 8.703125 
Q 5.609375 18.84375 5.609375 36.375 
Q 5.609375 53.953125 15.125 64.078125 
Q 24.65625 74.21875 41.21875 74.21875 
Q 47.75 74.21875 53.53125 72.484375 
Q 59.328125 70.75 64.40625 67.28125 
z
" id="DejaVuSans-43"/>
      <path d="M 34.28125 27.484375 
Q 23.390625 27.484375 19.1875 25 
Q 14.984375 22.515625 14.984375 16.5 
Q 14.984375 11.71875 18.140625 8.90625 
Q 21.296875 6.109375 26.703125 6.109375 
Q 34.1875 6.109375 38.703125 11.40625 
Q 43.21875 16.703125 43.21875 25.484375 
L 43.21875 27.484375 
z
M 52.203125 31.203125 
L 52.203125 0 
L 43.21875 0 
L 43.21875 8.296875 
Q 40.140625 3.328125 35.546875 0.953125 
Q 30.953125 -1.421875 24.3125 -1.421875 
Q 15.921875 -1.421875 10.953125 3.296875 
Q 6 8.015625 6 15.921875 
Q 6 25.140625 12.171875 29.828125 
Q 18.359375 34.515625 30.609375 34.515625 
L 43.21875 34.515625 
L 43.21875 35.40625 
Q 43.21875 41.609375 39.140625 45 
Q 35.0625 48.390625 27.6875 48.390625 
Q 23 48.390625 18.546875 47.265625 
Q 14.109375 46.140625 10.015625 43.890625 
L 10.015625 52.203125 
Q 14.9375 54.109375 19.578125 55.046875 
Q 24.21875 56 28.609375 56 
Q 40.484375 56 46.34375 49.84375 
Q 52.203125 43.703125 52.203125 31.203125 
z
" id="DejaVuSans-61"/>
      <path d="M 48.6875 27.296875 
Q 48.6875 37.203125 44.609375 42.84375 
Q 40.53125 48.484375 33.40625 48.484375 
Q 26.265625 48.484375 22.1875 42.84375 
Q 18.109375 37.203125 18.109375 27.296875 
Q 18.109375 17.390625 22.1875 11.75 
Q 26.265625 6.109375 33.40625 6.109375 
Q 40.53125 6.109375 44.609375 11.75 
Q 48.6875 17.390625 48.6875 27.296875 
z
M 18.109375 46.390625 
Q 20.953125 51.265625 25.265625 53.625 
Q 29.59375 56 35.59375 56 
Q 45.5625 56 51.78125 48.09375 
Q 58.015625 40.1875 58.015625 27.296875 
Q 58.015625 14.40625 51.78125 6.484375 
Q 45.5625 -1.421875 35.59375 -1.421875 
Q 29.59375 -1.421875 25.265625 0.953125 
Q 20.953125 3.328125 18.109375 8.203125 
L 18.109375 0 
L 9.078125 0 
L 9.078125 75.984375 
L 18.109375 75.984375 
z
" id="DejaVuSans-62"/>
     </defs>
     <g transform="translate(378.809091 277.642125)scale(0.1 -0.1)">
      <use xlink:href="#DejaVuSans-43"/>
      <use x="69.824219" xlink:href="#DejaVuSans-61"/>
      <use x="131.103516" xlink:href="#DejaVuSans-6e"/>
      <use x="194.482422" xlink:href="#DejaVuSans-6e"/>
      <use x="257.861328" xlink:href="#DejaVuSans-61"/>
      <use x="319.140625" xlink:href="#DejaVuSans-62"/>
      <use x="382.617188" xlink:href="#DejaVuSans-69"/>
      <use x="410.400391" xlink:href="#DejaVuSans-6e"/>
      <use x="473.779297" xlink:href="#DejaVuSans-6f"/>
      <use x="534.960938" xlink:href="#DejaVuSans-69"/>
      <use x="562.744141" xlink:href="#DejaVuSans-64"/>
     </g>
    </g>
    <g id="line2d_112"/>
    <g id="line2d_113">
     <g>
      <use style="fill:#c0c0c0;stroke:#c0c0c0;stroke-linejoin:miter;" x="360.809091" xlink:href="#mcb4893a03a" y="288.82025"/>
     </g>
    </g>
    <g id="text_42">
     <!-- AT$_1$R -->
     <g transform="translate(378.809091 292.32025)scale(0.1 -0.1)">
      <use transform="translate(0 0.09375)" xlink:href="#DejaVuSans-41"/>
      <use transform="translate(68.408203 0.09375)" xlink:href="#DejaVuSans-54"/>
      <use transform="translate(130.449219 -16.3125)scale(0.7)" xlink:href="#DejaVuSans-31"/>
      <use transform="translate(177.719727 0.09375)" xlink:href="#DejaVuSans-52"/>
     </g>
    </g>
   </g>
  </g>
 </g>
 <defs>
  <clipPath id="p8a00f8ab58">
   <rect height="120.96" width="162.327273" x="57.6" y="41.472"/>
  </clipPath>
  <clipPath id="p7e0852e394">
   <rect height="120.96" width="162.327273" x="252.392727" y="41.472"/>
  </clipPath>
  <clipPath id="pfb5ffdf955">
   <rect height="120.96" width="162.327273" x="57.6" y="186.624"/>
  </clipPath>
 </defs>
</svg>
